<?xml version="1.0" encoding="UTF-8"?>
<svg version="1.1" xmlns="http://www.w3.org/2000/svg" width="60" height="60">
<path d="M0 0 C19.8 0 39.6 0 60 0 C60 19.8 60 39.6 60 60 C40.2 60 20.4 60 0 60 C0 40.2 0 20.4 0 0 Z " fill="#EAD469" transform="translate(0,0)"/>
<path d="M0 0 C19.8 0 39.6 0 60 0 C60 19.8 60 39.6 60 60 C40.2 60 20.4 60 0 60 C0 40.2 0 20.4 0 0 Z M3 2 C1.23537317 5.08809695 1 6.23312136 1 10 C17.83 10.33 34.66 10.66 52 11 C35.5 11.33 19 11.66 2 12 C1.979375 19.404375 1.95875 26.80875 1.9375 34.4375 C1.928396 36.7777124 1.91929199 39.1179248 1.90991211 41.52905273 C1.90699306 43.37223249 1.90444448 45.21541288 1.90234375 47.05859375 C1.89722778 48.02510864 1.89211182 48.99162354 1.88684082 49.98742676 C1.88671997 50.90092896 1.88659912 51.81443115 1.88647461 52.75561523 C1.884254 53.55281479 1.88203339 54.35001434 1.87974548 55.17137146 C1.79949544 57.01922281 1.79949544 57.01922281 3 58 C4.38050858 58.12197808 5.76697647 58.17768899 7.15258789 58.20532227 C8.03342545 58.22526749 8.914263 58.24521271 9.8217926 58.26576233 C10.77907761 58.28247482 11.73636261 58.29918732 12.72265625 58.31640625 C14.18547279 58.3475779 14.18547279 58.3475779 15.67784119 58.37937927 C18.8059863 58.44498412 21.93421822 58.50381028 25.0625 58.5625 C27.1777435 58.60567483 29.29297809 58.64928877 31.40820312 58.69335938 C36.60537587 58.80067655 41.80263577 58.9024222 47 59 C47.04825928 58.37424072 47.09651855 57.74848145 47.14624023 57.10375977 C47.25754272 55.87870728 47.25754272 55.87870728 47.37109375 54.62890625 C47.43997803 53.81752197 47.5088623 53.0061377 47.57983398 52.17016602 C48 50 48 50 50.0625 47.9375 C50.701875 47.628125 51.34125 47.31875 52 47 C52 47.99 52 48.98 52 50 C51.01 50 50.02 50 49 50 C49 51.98 49 53.96 49 56 C51.10581433 56.20977532 51.10581433 56.20977532 52.70129395 54.62229919 C57.17392063 49.95529734 58.79925543 46.72992864 58.81872559 40.25831604 C58.78573364 39.31842331 58.7527417 38.37853058 58.71875 37.41015625 C58.71121704 36.42502548 58.70368408 35.43989471 58.69592285 34.4249115 C58.66357583 31.30263393 58.5819183 28.18382808 58.5 25.0625 C58.47344011 22.93948989 58.44997118 20.81643872 58.4296875 18.69335938 C58.37948117 14.83420869 58.32389753 10.97566008 58.22460938 7.11743164 C58.20571655 6.34436172 58.18682373 5.57129181 58.1673584 4.77479553 C58.18796161 2.97542826 58.18796161 2.97542826 57 2 C55.31198015 1.90646837 53.62004793 1.88255209 51.92944336 1.88647461 C50.84839828 1.88655014 49.76735321 1.88662567 48.65354919 1.88670349 C47.4775264 1.89186478 46.3015036 1.89702606 45.08984375 1.90234375 C43.89267227 1.9037587 42.69550079 1.90517365 41.46205139 1.90663147 C37.62050934 1.91225021 33.77902457 1.92480589 29.9375 1.9375 C27.34049563 1.94251259 24.74349035 1.94707591 22.14648438 1.95117188 C15.76430321 1.96222573 9.3821557 1.97898208 3 2 Z " fill="#0A0B0B" transform="translate(0,0)"/>
<path d="M0 0 C1.61672607 -0.00472824 1.61672607 -0.00472824 3.26611328 -0.009552 C4.43899902 -0.00752777 5.61188477 -0.00550354 6.8203125 -0.00341797 C8.0151123 -0.00437469 9.20991211 -0.00533142 10.44091797 -0.00631714 C12.9729823 -0.00699918 15.50504838 -0.00514325 18.03710938 -0.00097656 C21.9284251 0.00437132 25.81962539 -0.00092079 29.7109375 -0.00732422 C32.16406276 -0.00666344 34.61718794 -0.00538229 37.0703125 -0.00341797 C38.24319824 -0.0054422 39.41608398 -0.00746643 40.62451172 -0.009552 C41.7023291 -0.00639984 42.78014648 -0.00324768 43.890625 0 C44.84469238 0.00079559 45.79875977 0.00159119 46.78173828 0.00241089 C48.9453125 0.12939453 48.9453125 0.12939453 49.9453125 1.12939453 C49.9453125 3.76939453 49.9453125 6.40939453 49.9453125 9.12939453 C31.1353125 8.79939453 12.3253125 8.46939453 -7.0546875 8.12939453 C-5.89404757 0.00491502 -5.89404757 0.00491502 0 0 Z " fill="#E4F6FA" transform="translate(8.0546875,1.87060546875)"/>
<path d="M0 0 C2.31 0 4.62 0 7 0 C7.02527124 6.24795675 7.04283344 12.49590041 7.05493164 18.74389648 C7.05997298 20.87118014 7.06680591 22.99846031 7.07543945 25.12573242 C7.08751379 28.17627826 7.09323014 31.22677845 7.09765625 34.27734375 C7.10281754 35.23462875 7.10797882 36.19191376 7.11329651 37.1782074 C7.11337204 38.05904495 7.11344757 38.93988251 7.11352539 39.84741211 C7.115746 40.62684677 7.11796661 41.40628143 7.12025452 42.20933533 C7 44 7 44 6 45 C3.5 45.125 3.5 45.125 1 45 C-0 44 -0 44 -0.12025452 42.20933533 C-0.11803391 41.42990067 -0.11581329 40.650466 -0.11352539 39.84741211 C-0.11341209 38.52615578 -0.11341209 38.52615578 -0.11329651 37.1782074 C-0.10555458 35.74227989 -0.10555458 35.74227989 -0.09765625 34.27734375 C-0.0962413 33.30213272 -0.09482635 32.32692169 -0.09336853 31.32215881 C-0.08775133 28.19390857 -0.07519593 25.06572877 -0.0625 21.9375 C-0.05748722 19.82226666 -0.05292393 17.70703219 -0.04882812 15.59179688 C-0.03777631 10.39450704 -0.02102146 5.19725855 0 0 Z " fill="#FEEFA2" transform="translate(2,13)"/>
<path d="M0 0 C17.49 0 34.98 0 53 0 C53 0.33 53 0.66 53 1 C36.17 1 19.34 1 2 1 C2.33 15.85 2.66 30.7 3 46 C15.98370076 46.24947345 15.98370076 46.24947345 28.96777344 46.47802734 C30.59832381 46.51324066 32.2288591 46.54916273 33.859375 46.5859375 C34.70258301 46.59729736 35.54579102 46.60865723 36.41455078 46.62036133 C37.22617676 46.64042236 38.03780273 46.6604834 38.87402344 46.68115234 C39.57573669 46.69447601 40.27744995 46.70779968 41.00042725 46.7215271 C43 47 43 47 47 49 C31.49 49 15.98 49 0 49 C0 32.83 0 16.66 0 0 Z " fill="#000000" transform="translate(0,11)"/>
<path d="M0 0 C1.65 0 3.3 0 5 0 C5 1.32 5 2.64 5 4 C14.24 4 23.48 4 33 4 C33 2.68 33 1.36 33 0 C34.65 0 36.3 0 38 0 C38 0.99 38 1.98 38 3 C39.32 3.66 40.64 4.32 42 5 C27.48 5 12.96 5 -2 5 C-1.34 4.34 -0.68 3.68 0 3 C0 2.01 0 1.02 0 0 Z " fill="#9EB7BF" transform="translate(11,5)"/>
<path d="M0 0 C-0.95117134 1.1725131 -1.91117009 2.33787015 -2.875 3.5 C-3.40867187 4.1496875 -3.94234375 4.799375 -4.4921875 5.46875 C-4.98976562 5.9740625 -5.48734375 6.479375 -6 7 C-6.66 7 -7.32 7 -8 7 C-8 5.02 -8 3.04 -8 1 C-4.85571151 -0.9090323 -3.47925125 -1.04523725 0 0 Z " fill="#E5D792" transform="translate(57,49)"/>
<path d="M0 0 C0 0.99 0 1.98 0 3 C-0.99 3 -1.98 3 -3 3 C-2.95875 4.11375 -2.9175 5.2275 -2.875 6.375 C-3 10 -3 10 -5 12 C-5.08131463 10.56344146 -5.13933559 9.1255517 -5.1875 7.6875 C-5.22230469 6.88699219 -5.25710937 6.08648437 -5.29296875 5.26171875 C-5 3 -5 3 -3.61328125 1.20703125 C-2 0 -2 0 0 0 Z " fill="#37321B" transform="translate(52,47)"/>
</svg>
